<svg xmlns="http://www.w3.org/2000/svg" version="1.1" xmlns:xlink="http://www.w3.org/1999/xlink" xmlns:svgjs="http://svgjs.dev/svgjs" width="400" height="400"><svg width="400" height="400" viewBox="0 0 400 400" fill="none" xmlns="http://www.w3.org/2000/svg">
<path fill-rule="evenodd" clip-rule="evenodd" d="M200 399C309.904 399 399 309.904 399 200C399 90.096 309.904 0.999985 200 0.999985C90.096 0.999985 1 90.096 1 200C1 309.904 90.096 399 200 399ZM250.9 310.635C299.562 287.65 314.817 245.204 318.25 228.668C300.458 246.889 280.772 265.359 267.533 252.573C267.533 252.573 266.808 184.338 266.808 156.36C266.808 118.736 302.488 90.6961 302.488 90.6961C282.865 94.1911 259.302 101.178 234.29 125.723C232.033 127.962 229.894 130.313 227.879 132.772C217.161 124.567 203.271 127.026 203.271 127.026C210.777 131.149 218.268 143.157 218.268 153.098V250.813C218.268 250.813 201.903 265.21 189.291 265.21C186.449 265.232 183.642 264.572 181.104 263.288C178.567 262.004 176.375 260.132 174.711 257.828C173.713 256.525 172.886 255.098 172.252 253.584V132.859C168.524 135.934 155.925 138.469 155.925 117.555C155.925 104.561 165.287 89.073 181.959 79.5739C159.065 83.0657 137.623 92.9566 120.108 108.106C106.8 119.604 96.1562 133.867 88.9176 149.896C81.679 165.924 78.0161 183.337 78.1871 200.927C78.1871 200.927 90.379 162.834 105.649 159.314C107.872 158.729 110.204 158.67 112.456 159.146C114.707 159.622 116.815 160.614 118.615 162.05C120.416 163.483 121.852 165.318 122.816 167.408C123.78 169.497 124.243 171.782 124.165 174.08V263.525C124.165 272.591 118.32 274.572 112.919 274.476C109.259 274.218 105.643 273.537 102.142 272.445C113.292 287.535 127.782 299.845 144.476 308.408C161.17 316.972 179.621 321.558 198.383 321.81L231.358 288.664L250.9 310.635Z" fill="black"></path>
</svg><style>@media (prefers-color-scheme: light) { :root { filter: none; } }
@media (prefers-color-scheme: dark) { :root { filter: invert(100%); } }
</style></svg>